<?xml version="1.0" encoding="UTF-8" standalone="no"?>
<!-- Created with Inkscape (http://www.inkscape.org/) -->

<svg
   xmlns:dc="http://purl.org/dc/elements/1.1/"
   xmlns:cc="http://creativecommons.org/ns#"
   xmlns:rdf="http://www.w3.org/1999/02/22-rdf-syntax-ns#"
   xmlns:svg="http://www.w3.org/2000/svg"
   xmlns="http://www.w3.org/2000/svg"
   xmlns:xlink="http://www.w3.org/1999/xlink"
   xmlns:sodipodi="http://sodipodi.sourceforge.net/DTD/sodipodi-0.dtd"
   xmlns:inkscape="http://www.inkscape.org/namespaces/inkscape"
   width="240"
   height="180"
   id="svg2"
   version="1.1"
   inkscape:version="0.48.2 r9819"
   sodipodi:docname="killer.svg"
   inkscape:export-filename="/home/tog/documents/www/test_wordpress/wp-content/themes/Killer/screenshot.png"
   inkscape:export-xdpi="90"
   inkscape:export-ydpi="90">
  <defs
     id="defs4">
    <linearGradient
       inkscape:collect="always"
       id="linearGradient4168">
      <stop
         style="stop-color:#3f1d1d;stop-opacity:1;"
         offset="0"
         id="stop4170" />
      <stop
         style="stop-color:#3f1d1d;stop-opacity:0;"
         offset="1"
         id="stop4172" />
    </linearGradient>
    <linearGradient
       id="linearGradient4082">
      <stop
         style="stop-color:#ffffff;stop-opacity:1;"
         offset="0"
         id="stop4084" />
      <stop
         style="stop-color:#d0d0d0;stop-opacity:1;"
         offset="1"
         id="stop4086" />
    </linearGradient>
    <linearGradient
       id="linearGradient3908">
      <stop
         style="stop-color:#4c4c4c;stop-opacity:1;"
         offset="0"
         id="stop3910" />
      <stop
         style="stop-color:#ff5555;stop-opacity:1;"
         offset="1"
         id="stop3912" />
    </linearGradient>
    <linearGradient
       id="linearGradient3806">
      <stop
         style="stop-color:#6866ff;stop-opacity:1;"
         offset="0"
         id="stop3808" />
      <stop
         style="stop-color:#b3b2ff;stop-opacity:1;"
         offset="1"
         id="stop3810" />
    </linearGradient>
    <filter
       id="filter4066"
       inkscape:label="Drop shadow"
       width="1.5"
       height="1.5"
       x="-.25"
       y="-.25">
      <feGaussianBlur
         id="feGaussianBlur4068"
         in="SourceAlpha"
         stdDeviation="3"
         result="blur" />
      <feColorMatrix
         id="feColorMatrix4070"
         result="bluralpha"
         type="matrix"
         values="1 0 0 0 0 0 1 0 0 0 0 0 1 0 0 0 0 0 0.5 0 " />
      <feOffset
         id="feOffset4072"
         in="bluralpha"
         dx="1"
         dy="1"
         result="offsetBlur" />
      <feMerge
         id="feMerge4074">
        <feMergeNode
           id="feMergeNode4076"
           in="offsetBlur" />
        <feMergeNode
           id="feMergeNode4078"
           in="SourceGraphic" />
      </feMerge>
    </filter>
    <linearGradient
       inkscape:collect="always"
       xlink:href="#linearGradient4168"
       id="linearGradient4174"
       x1="99.13789"
       y1="954.00718"
       x2="133.23156"
       y2="954.00718"
       gradientUnits="userSpaceOnUse" />
    <filter
       id="filter4208"
       inkscape:label="Inner Shadow"
       inkscape:menu="Shadows and Glows"
       inkscape:menu-tooltip="Adds a colorizable drop shadow inside"
       color-interpolation-filters="sRGB">
      <feGaussianBlur
         id="feGaussianBlur4210"
         stdDeviation="4"
         result="result8" />
      <feOffset
         id="feOffset4212"
         dx="4"
         dy="4"
         result="result11" />
      <feComposite
         id="feComposite4214"
         in2="result11"
         result="result6"
         in="SourceGraphic"
         operator="in" />
      <feFlood
         id="feFlood4216"
         result="result10"
         in="result6"
         flood-opacity="1"
         flood-color="rgb(80,35,35)" />
      <feBlend
         id="feBlend4218"
         in2="result10"
         mode="normal"
         in="result6"
         result="result12" />
      <feComposite
         id="feComposite4220"
         in2="SourceGraphic"
         result="result2"
         operator="in" />
    </filter>
    <linearGradient
       inkscape:collect="always"
       xlink:href="#linearGradient4082-3"
       id="linearGradient4088-8"
       x1="114.5"
       y1="-8.9285746"
       x2="114.5"
       y2="129.84955"
       gradientUnits="userSpaceOnUse"
       gradientTransform="matrix(0.95157533,0,0,0.93657628,4.8112218,877.76738)" />
    <linearGradient
       id="linearGradient4082-3">
      <stop
         style="stop-color:#d35a5a;stop-opacity:1;"
         offset="0"
         id="stop4084-0" />
      <stop
         style="stop-color:#903939;stop-opacity:1;"
         offset="1"
         id="stop4086-1" />
    </linearGradient>
    <linearGradient
       y2="129.84955"
       x2="114.5"
       y1="-8.9285746"
       x1="114.5"
       gradientTransform="matrix(0.95157533,0,0,0.93657628,294.79142,543.45011)"
       gradientUnits="userSpaceOnUse"
       id="linearGradient4004"
       xlink:href="#linearGradient4082-3"
       inkscape:collect="always" />
    <filter
       id="filter4088"
       inkscape:label="Inner Shadow"
       inkscape:menu="Shadows and Glows"
       inkscape:menu-tooltip="Adds a colorizable drop shadow inside"
       color-interpolation-filters="sRGB">
      <feGaussianBlur
         id="feGaussianBlur4090"
         stdDeviation="4"
         result="result8" />
      <feOffset
         id="feOffset4092"
         dx="4"
         dy="4"
         result="result11" />
      <feComposite
         id="feComposite4094"
         in2="result11"
         result="result6"
         in="SourceGraphic"
         operator="in" />
      <feFlood
         id="feFlood4096"
         result="result10"
         in="result6"
         flood-opacity="1"
         flood-color="rgb(0,0,0)" />
      <feBlend
         id="feBlend4098"
         in2="result10"
         mode="normal"
         in="result6"
         result="result12" />
      <feComposite
         id="feComposite4100"
         in2="SourceGraphic"
         result="result2"
         operator="in" />
    </filter>
    <filter
       id="filter4154"
       inkscape:label="Inner Shadow"
       inkscape:menu="Shadows and Glows"
       inkscape:menu-tooltip="Adds a colorizable drop shadow inside"
       color-interpolation-filters="sRGB">
      <feGaussianBlur
         id="feGaussianBlur4156"
         stdDeviation="4"
         result="result8" />
      <feOffset
         id="feOffset4158"
         dx="4"
         dy="4"
         result="result11" />
      <feComposite
         id="feComposite4160"
         in2="result11"
         result="result6"
         in="SourceGraphic"
         operator="in" />
      <feFlood
         id="feFlood4162"
         result="result10"
         in="result6"
         flood-opacity="1"
         flood-color="rgb(0,0,0)" />
      <feBlend
         id="feBlend4164"
         in2="result10"
         mode="normal"
         in="result6"
         result="result12" />
      <feComposite
         id="feComposite4166"
         in2="SourceGraphic"
         result="result2"
         operator="in" />
    </filter>
    <filter
       id="filter4154-7"
       inkscape:label="Inner Shadow"
       inkscape:menu="Shadows and Glows"
       inkscape:menu-tooltip="Adds a colorizable drop shadow inside"
       color-interpolation-filters="sRGB">
      <feGaussianBlur
         id="feGaussianBlur4156-5"
         stdDeviation="4"
         result="result8" />
      <feOffset
         id="feOffset4158-7"
         dx="4"
         dy="4"
         result="result11" />
      <feComposite
         id="feComposite4160-1"
         in2="result11"
         result="result6"
         in="SourceGraphic"
         operator="in" />
      <feFlood
         id="feFlood4162-6"
         result="result10"
         in="result6"
         flood-opacity="1"
         flood-color="rgb(0,0,0)" />
      <feBlend
         id="feBlend4164-9"
         in2="result10"
         mode="normal"
         in="result6"
         result="result12" />
      <feComposite
         id="feComposite4166-8"
         in2="SourceGraphic"
         result="result2"
         operator="in" />
    </filter>
    <radialGradient
       inkscape:collect="always"
       xlink:href="#linearGradient4082"
       id="radialGradient4302"
       cx="120.01981"
       cy="962.39374"
       fx="120.01981"
       fy="962.39374"
       r="120.43687"
       gradientTransform="matrix(1,0,0,0.75100445,0,239.63176)"
       gradientUnits="userSpaceOnUse" />
  </defs>
  <sodipodi:namedview
     id="base"
     pagecolor="#ffffff"
     bordercolor="#666666"
     borderopacity="1.0"
     inkscape:pageopacity="0.0"
     inkscape:pageshadow="2"
     inkscape:zoom="0.49497475"
     inkscape:cx="-529.01637"
     inkscape:cy="226.56945"
     inkscape:document-units="px"
     inkscape:current-layer="layer1"
     showgrid="false"
     showguides="true"
     inkscape:guide-bbox="true"
     inkscape:window-width="1366"
     inkscape:window-height="720"
     inkscape:window-x="-2"
     inkscape:window-y="25"
     inkscape:window-maximized="1" />
  <metadata
     id="metadata7">
    <rdf:RDF>
      <cc:Work
         rdf:about="">
        <dc:format>image/svg+xml</dc:format>
        <dc:type
           rdf:resource="http://purl.org/dc/dcmitype/StillImage" />
        <dc:title></dc:title>
      </cc:Work>
    </rdf:RDF>
  </metadata>
  <g
     inkscape:groupmode="layer"
     id="layer2"
     inkscape:label="background"
     style="display:inline"
     transform="translate(0,-872.36218)">
    <path
       sodipodi:type="arc"
       style="color:#000000;fill:#c7c7c7;fill-opacity:1;fill-rule:nonzero;stroke:none;stroke-width:1;marker:none;visibility:visible;display:inline;overflow:visible;enable-background:accumulate"
       id="path3945-9"
       sodipodi:cx="336.88586"
       sodipodi:cy="-25.566042"
       sodipodi:rx="71.215752"
       sodipodi:ry="5.5558391"
       d="m 408.10162,-25.566042 c 0,3.068405 -31.88438,5.555839 -71.21576,5.555839 -39.33137,0 -71.21575,-2.487434 -71.21575,-5.555839 0,-3.068405 31.88438,-5.555839 71.21575,-5.555839 39.33138,0 71.21576,2.487434 71.21576,5.555839 z"
       transform="matrix(0.17730493,0,0,0.36105737,308.46908,948.96098)"
       inkscape:export-filename="/home/tog/documents/www/test_wordpress/wp-content/themes/Killer/library/images/config-icon.png"
       inkscape:export-xdpi="49.867119"
       inkscape:export-ydpi="49.867119" />
    <path
       style="fill:none;stroke:#575353;stroke-width:4;stroke-linecap:butt;stroke-linejoin:miter;stroke-miterlimit:4;stroke-opacity:1;stroke-dasharray:none"
       d="m 301.78308,18.691266 c 11.69075,0 11.82704,-2.08344 11.82704,6.881664 0,7.765547 -1.34671,6.818529 -13.46855,6.818529 -14.01586,0 -11.36421,-1.325825 -11.36421,16.920056"
       id="path3967"
       inkscape:connector-curvature="0"
       transform="translate(0,872.36218)"
       sodipodi:nodetypes="cssc" />
    <path
       sodipodi:type="arc"
       style="color:#000000;fill:#838383;fill-opacity:1;fill-rule:nonzero;stroke:none;stroke-width:1;marker:none;visibility:visible;display:inline;overflow:visible;enable-background:accumulate"
       id="path3945"
       sodipodi:cx="336.88586"
       sodipodi:cy="-25.566042"
       sodipodi:rx="71.215752"
       sodipodi:ry="5.5558391"
       d="m 408.10162,-25.566042 c 0,3.068405 -31.88438,5.555839 -71.21576,5.555839 -39.33137,0 -71.21575,-2.487434 -71.21575,-5.555839 0,-3.068405 31.88438,-5.555839 71.21575,-5.555839 39.33138,0 71.21576,2.487434 71.21576,5.555839 z"
       transform="matrix(1,0,0,0.63636364,-162.85714,714.91243)"
       inkscape:export-filename="/home/tog/documents/www/test_wordpress/wp-content/themes/Killer/library/images/config-icon.png"
       inkscape:export-xdpi="19.209999"
       inkscape:export-ydpi="19.209999" />
    <rect
       style="color:#000000;fill:url(#radialGradient4302);fill-opacity:1;fill-rule:nonzero;stroke:none;stroke-width:0.94080942999999995;marker:none;visibility:visible;display:inline;overflow:visible;enable-background:accumulate;stroke-opacity:1"
       id="rect4080"
       width="239.93292"
       height="179.95644"
       x="0.053345133"
       y="872.41553"
       ry="0"
       inkscape:export-xdpi="90"
       inkscape:export-ydpi="90" />
    <path
       sodipodi:type="arc"
       style="color:#000000;fill:#c7c7c7;fill-opacity:1;fill-rule:nonzero;stroke:#454545;stroke-width:10.3444891;stroke-miterlimit:4;stroke-opacity:1;stroke-dasharray:none;marker:none;visibility:visible;display:inline;overflow:visible;enable-background:accumulate"
       id="path2985-17"
       sodipodi:cx="252.85715"
       sodipodi:cy="290.93362"
       sodipodi:rx="98.571426"
       sodipodi:ry="98.571426"
       d="m 351.42857,290.93362 c 0,54.4395 -44.13193,98.57143 -98.57142,98.57143 -54.4395,0 -98.57143,-44.13193 -98.57143,-98.57143 0,-54.43949 44.13193,-98.57142 98.57143,-98.57142 54.43949,0 98.57142,44.13193 98.57142,98.57142 z"
       transform="matrix(0.72271513,0,0,0.72271513,-8.6057227,414.78739)"
       inkscape:export-filename="/home/tog/documents/www/test_wordpress/wp-content/themes/Killer/library/images/config-icon.png"
       inkscape:export-xdpi="19.209999"
       inkscape:export-ydpi="19.209999" />
    <path
       style="fill:#797979;fill-opacity:1;stroke:none"
       d="m 213.43285,578.64707 c -2.10603,-0.0658 -3.93124,0.53736 -3.93124,0.53736 l -31.64773,28.82977 3.16478,2.10266 -54.02362,58.50065 c 0,0 15.81324,17.08491 45.76554,-4.2754 29.9523,-21.36036 14.11784,-47.52011 14.11784,-47.52011 l 2.27468,-2.5699 2.81862,1.23822 c 0,0 23.73227,-9.60549 27.12309,-25.09171 2.11926,-9.67892 -2.15194,-11.64203 -5.66196,-11.75154 z m -35.65314,44.06239 c 2.80905,0 5.0933,2.13506 5.0933,4.78939 0,2.65431 -2.28425,4.81274 -5.0933,4.81274 -2.80905,0 -5.06857,-2.15843 -5.06857,-4.81274 0,-2.65433 2.25952,-4.78939 5.06857,-4.78939 z"
       id="path2987-5-1"
       inkscape:connector-curvature="0"
       inkscape:export-filename="/home/tog/documents/www/test_wordpress/wp-content/themes/Killer/library/images/config-icon.png"
       inkscape:export-xdpi="19.209999"
       inkscape:export-ydpi="19.209999" />
    <path
       style="opacity:0.81372549;fill:#484848;fill-opacity:1;stroke:none"
       d="m 140.17057,674.27169 c 0,0 3.60455,3.3376 7.07562,-2.67 3.47104,-6.0076 19.75829,-12.81622 21.76084,-14.01775 2.00252,-1.2015 7.47612,-6.8086 9.87914,-10.41315 2.40305,-3.60455 4.40558,-10.27967 8.01013,-11.48117 3.60457,-1.20153 4.00508,-1.60205 4.00508,-1.60205 0,0 -1.33501,13.61723 -3.47107,15.21925 -2.13603,1.60203 -5.20658,5.74059 -6.4081,7.60963 -0.24936,0.38789 -0.93573,1.13806 -1.9064,2.09535 -0.12254,0.12076 -0.43246,2.30539 -0.3896,4.44679 0.0425,2.1226 1.56828,4.2986 -0.39321,4.1212 -0.91058,-0.082 0.35521,-2.12018 0.20342,-4.06416 -0.12764,-1.63338 -0.88689,-3.10217 -1.01612,-2.9824 -1.95764,1.81411 -4.46499,3.97312 -6.87588,5.82082 -0.12298,0.0942 -0.18392,0.70127 -0.23588,2.36904 -0.0689,2.2119 2.21476,5.6892 -0.28295,5.7502 -2.3545,0.057 -0.0525,-3.9732 -0.37568,-5.9996 -0.195,-1.22293 -0.91149,-0.7837 -1.0458,-0.689 -1.8204,1.2835 -3.47133,2.2623 -4.6366,2.6155 -4.40555,1.335 -13.2167,4.6725 -14.81873,5.073 -1.60202,0.4005 -9.07814,-1.2015 -9.07814,-1.2015 z"
       id="path3840-6"
       inkscape:connector-curvature="0"
       sodipodi:nodetypes="csssscssssssssssssssc"
       inkscape:export-filename="/home/tog/documents/www/test_wordpress/wp-content/themes/Killer/library/images/config-icon.png"
       inkscape:export-xdpi="19.209999"
       inkscape:export-ydpi="19.209999" />
    <rect
       style="color:#000000;fill:#838383;fill-opacity:1;fill-rule:nonzero;stroke:none;stroke-width:1;marker:none;visibility:visible;display:inline;overflow:visible;enable-background:accumulate"
       id="rect3947"
       width="8.586297"
       height="25.75889"
       x="284.21191"
       y="914.22382"
       ry="3.0304577" />
    <rect
       style="color:#000000;fill:#838383;fill-opacity:1;fill-rule:nonzero;stroke:none;stroke-width:1;marker:none;visibility:visible;display:inline;overflow:visible;enable-background:accumulate"
       id="rect3947-1"
       width="14.647213"
       height="43.941635"
       x="883.98267"
       y="-310.47589"
       ry="5.1696043"
       transform="matrix(0,1,-1,0,0,0)" />
    <path
       style="fill:#343434;fill-opacity:1;stroke:none"
       d="m 297.45701,26.244819 c -5.33175,0.104531 -11.9638,0.168252 -17.27844,0.170618 -0.15291,6.8e-5 -0.57258,1.388381 -0.72324,3.088742 -0.23804,2.686574 1.80358,5.661074 -0.43739,6.151833 -2.25323,-0.669971 0.0952,-3.508918 -0.14185,-6.202823 -0.14771,-1.678359 -0.87432,-3.040494 -1.01904,-3.040993 -0.62561,-0.0022 -1.22273,-0.0054 -1.78576,-0.0097 -0.0858,-6.62e-4 -0.47104,0.302155 -0.56755,1.000749 -0.15222,1.101746 0.97066,2.785398 -0.1465,2.788258 -0.75106,-0.513559 0.13022,-1.694459 0.0274,-2.777001 -0.072,-0.758167 -0.50222,-1.023454 -0.58556,-1.024466 -2.10755,-0.0256 -3.54505,-0.0712 -3.90617,-0.139984 -1.875,-0.357123 -4.01786,-2.053572 -4.375,-4.910718 l -5e-5,-4.8e-5 c 0,0 20.625,2.321428 25.53571,1.517857 4.91072,-0.803572 9.19643,-1.339286 12.58929,-0.535715 3.39285,0.803572 5.71428,0.08929 5.71428,0.08929 0,0 -0.625,3.035715 -3.66071,3.482143 -0.81494,0.119844 -3.6374,0.226818 -7.3671,0.312288 z"
       id="path3969"
       inkscape:connector-curvature="0"
       transform="translate(0,872.36218)"
       sodipodi:nodetypes="csscsssscsssccsscscc" />
    <rect
       style="color:#000000;fill:url(#linearGradient4004);fill-opacity:1;fill-rule:nonzero;stroke:#4e4e4e;stroke-width:0.94080943;stroke-opacity:1;marker:none;visibility:visible;display:inline;overflow:visible;enable-background:accumulate"
       id="rect4080-7"
       width="239.93292"
       height="179.95644"
       x="290.03354"
       y="538.09827"
       ry="0"
       inkscape:export-xdpi="90"
       inkscape:export-ydpi="90" />
  </g>
  <g
     inkscape:label="Layer 1"
     inkscape:groupmode="layer"
     id="layer1"
     transform="translate(0,-872.36218)">
    <path
       sodipodi:type="arc"
       style="color:#000000;fill:#c7c7c7;fill-opacity:1;fill-rule:nonzero;stroke:none;stroke-width:10.3444891;marker:none;visibility:visible;display:inline;overflow:visible;enable-background:accumulate"
       id="path2985-1"
       sodipodi:cx="252.85715"
       sodipodi:cy="290.93362"
       sodipodi:rx="98.571426"
       sodipodi:ry="98.571426"
       d="m 351.42857,290.93362 c 0,54.4395 -44.13193,98.57143 -98.57142,98.57143 -54.4395,0 -98.57143,-44.13193 -98.57143,-98.57143 0,-54.43949 44.13193,-98.57142 98.57143,-98.57142 54.43949,0 98.57142,44.13193 98.57142,98.57142 z"
       transform="matrix(0.76063747,0,0,0.76063747,-235.31102,406.10414)" />
    <path
       sodipodi:type="arc"
       style="color:#000000;fill:#928e8e;fill-opacity:1;fill-rule:nonzero;stroke:#454545;stroke-width:10.3444891;stroke-miterlimit:4;stroke-opacity:1;stroke-dasharray:none;marker:none;visibility:visible;display:inline;overflow:visible;enable-background:accumulate"
       id="path2985"
       sodipodi:cx="252.85715"
       sodipodi:cy="290.93362"
       sodipodi:rx="98.571426"
       sodipodi:ry="98.571426"
       d="m 351.42857,290.93362 c 0,54.4395 -44.13193,98.57143 -98.57142,98.57143 -54.4395,0 -98.57143,-44.13193 -98.57143,-98.57143 0,-54.43949 44.13193,-98.57142 98.57143,-98.57142 54.43949,0 98.57142,44.13193 98.57142,98.57142 z"
       transform="matrix(0.72271513,0,0,0.72271513,-228.60572,414.78739)" />
    <path
       sodipodi:type="arc"
       style="color:#000000;fill:#c4c4c4;fill-opacity:1;fill-rule:nonzero;stroke:none;stroke-width:10.3444891;marker:none;visibility:visible;display:inline;overflow:visible;enable-background:accumulate"
       id="path2985-9"
       sodipodi:cx="252.85715"
       sodipodi:cy="290.93362"
       sodipodi:rx="98.571426"
       sodipodi:ry="98.571426"
       d="m 351.42857,290.93362 c 0,54.4395 -44.13193,98.57143 -98.57142,98.57143 -54.4395,0 -98.57143,-44.13193 -98.57143,-98.57143 0,-54.43949 44.13193,-98.57142 98.57143,-98.57142 54.43949,0 98.57142,44.13193 98.57142,98.57142 z"
       transform="matrix(0.65441933,0,0,0.65441933,-209.07103,436.92254)" />
    <path
       style="fill:#797979;fill-opacity:1;stroke:none"
       d="m -6.5671627,578.64707 c -2.10603,-0.0658 -3.9312403,0.53736 -3.9312403,0.53736 l -31.64772,28.82977 3.16478,2.10266 -54.023627,58.50065 c 0,0 15.813246,17.0849 45.765547,-4.2754 29.95229,-21.36036 14.11784,-47.52011 14.11784,-47.52011 l 2.27468,-2.5699 2.81862,1.23822 c 0,0 23.7322603,-9.60549 27.12308031,-25.09171 2.11925999,-9.67892 -2.15194001,-11.64203 -5.66196001,-11.75154 z m -35.6531303,44.06239 c 2.80905,0 5.0933,2.13506 5.0933,4.78939 0,2.65431 -2.28425,4.81274 -5.0933,4.81274 -2.80905,0 -5.06857,-2.15843 -5.06857,-4.81274 0,-2.65433 2.25952,-4.78939 5.06857,-4.78939 z"
       id="path2987-5"
       inkscape:connector-curvature="0" />
    <path
       style="fill:#d8d8d8;fill-opacity:1;stroke:#000000;stroke-width:0.74761194px;stroke-linecap:butt;stroke-linejoin:miter;stroke-opacity:1"
       d="m -39.664213,606.89278 -51.258126,58.73423 c 0,0 14.942222,17.085 43.244676,-4.27536 28.30245,-21.36034 13.34019,-47.52009 13.34019,-47.52009 l 2.68673,-3.20072 -8.01347,-3.73806 z m -3.27079,12.82622 c 2.65433,0 4.81274,2.13508 4.81274,4.78939 0,2.65433 -2.15841,4.81274 -4.81274,4.81274 -2.65431,0 -4.7894,-2.15841 -4.7894,-4.81274 0,-2.65431 2.13509,-4.78939 4.7894,-4.78939 z"
       id="path2987"
       inkscape:connector-curvature="0" />
    <path
       style="fill:#454545;fill-opacity:1;stroke:#000000;stroke-width:0.74761194px;stroke-linecap:butt;stroke-linejoin:miter;stroke-opacity:1"
       d="m -37.531523,608.76222 -5.34009,-3.73806 29.90448,-28.83644 c 0,0 12.28219031,-4.27207 9.0781403,11.21418 -3.20405,15.48624 -25.6324003,25.09838 -25.6324003,25.09838 z"
       id="path2987-1"
       inkscape:connector-curvature="0"
       sodipodi:nodetypes="cccscc" />
    <path
       style="fill:#ffffff;fill-opacity:1;stroke:#000000;stroke-width:0.74761194px;stroke-linecap:butt;stroke-linejoin:miter;stroke-opacity:1"
       d="m -34.327453,613.83533 c 0,0 14.95224,26.16642 -13.35021,47.52676 -28.302454,21.36032 -43.254692,4.27202 -43.254692,4.27202 l 1.548623,-0.267 c 0,0 17.354024,13.5551 45.257219,-11.08064 18.34608,-16.19773 8.41063,-39.91713 8.41063,-39.91713 z"
       id="path2987-4"
       inkscape:connector-curvature="0"
       sodipodi:nodetypes="csccscc" />
    <path
       style="fill:#ffffff;fill-opacity:1;stroke:#000000;stroke-width:0.74761194px;stroke-linecap:butt;stroke-linejoin:miter;stroke-opacity:1"
       d="m -41.723463,620.10992 c 0,0 -3.62095,0.0326 -4.00508,3.87157 -0.3841,3.83886 2.87029,5.13984 2.87029,5.13984 0,0 -5.10218,-0.0543 -4.80607,-5.13984 0.29613,-5.08565 5.94086,-3.87157 5.94086,-3.87157 z"
       id="path3796"
       inkscape:connector-curvature="0"
       sodipodi:nodetypes="czczc" />
    <path
       style="opacity:0.81372549;fill:#ff001e;fill-opacity:1;stroke:#000000;stroke-width:0.74761194px;stroke-linecap:butt;stroke-linejoin:miter;stroke-opacity:1"
       d="m -80.839596,671.24121 c 0,0 3.604552,3.3376 7.075618,-2.67 3.471044,-6.0076 19.758295,-12.81622 21.760845,-14.01775 2.00252,-1.2015 7.47612,-6.8086 9.87914,-10.41315 2.40305,-3.60455 4.40558,-10.27967 8.01013,-11.48117 3.60457,-1.20153 4.00508,-1.60205 4.00508,-1.60205 0,0 -1.33501,13.61723 -3.47107,15.21925 -2.13603,1.60203 -5.20658,5.74059 -6.4081,7.60963 -0.24936,0.38789 -0.93573,1.13806 -1.9064,2.09535 -0.12254,0.12076 -0.43246,2.30539 -0.3896,4.44679 0.0425,2.1226 1.56828,4.2986 -0.39321,4.1212 -0.91058,-0.082 0.35521,-2.12018 0.20342,-4.06416 -0.12764,-1.63338 -0.88689,-3.10217 -1.01612,-2.9824 -1.95764,1.81411 -4.46499,3.97312 -6.87588,5.82082 -0.12298,0.0942 -0.18392,0.70127 -0.23588,2.36904 -0.0689,2.2119 2.21476,5.6892 -0.28295,5.7502 -2.3545,0.057 -0.0525,-3.9732 -0.37568,-5.9996 -0.195,-1.22293 -0.91149,-0.7837 -1.0458,-0.689 -1.8204,1.2835 -3.47133,2.2623 -4.6366,2.6155 -4.40555,1.335 -13.216707,4.6725 -14.818732,5.073 -1.602026,0.4005 -9.078145,-1.2015 -9.078145,-1.2015 z"
       id="path3840"
       inkscape:connector-curvature="0"
       sodipodi:nodetypes="csssscssssssssssssssc" />
    <path
       style="fill:#883c3c;fill-opacity:1;stroke:none;filter:url(#filter4208)"
       d="m 265.83645,936.27473 c -4.06157,-0.12684 -7.58157,1.03634 -7.58157,1.03634 l -61.03381,55.59934 6.10341,4.05507 -104.186593,112.82072 c 0,0 30.496423,32.9489 88.260583,-8.2453 57.76411,-41.1942 27.22676,-91.6443 27.22676,-91.6443 l 4.38681,-4.9562 5.43584,2.388 c 0,0 45.76857,-18.52453 52.30788,-48.39037 4.08704,-18.66615 -4.1501,-22.45206 -10.91931,-22.6633 z m -68.75843,84.97607 c 5.41738,0 9.82265,4.1175 9.82265,9.2365 0,5.119 -4.40527,9.2815 -9.82265,9.2815 -5.41733,0 -9.77489,-4.1625 -9.77489,-9.2815 0,-5.119 4.35756,-9.2365 9.77489,-9.2365 z"
       id="path2987-5-6-8"
       inkscape:connector-curvature="0"
       transform="matrix(0.27597916,0,0,0.27597916,352.26586,338.3069)" />
    <path
       style="fill:none;stroke:#575353;stroke-width:4;stroke-linecap:butt;stroke-linejoin:miter;stroke-miterlimit:4;stroke-opacity:1;stroke-dasharray:none;display:inline"
       d="m 381.78308,891.05345 c 11.69075,0 11.82704,-2.08344 11.82704,6.88166 0,7.76555 -1.34671,6.81853 -13.46855,6.81853 -14.01586,0 -11.36421,-1.32582 -11.36421,16.92006"
       id="path3967-8"
       inkscape:connector-curvature="0"
       sodipodi:nodetypes="cssc"
       inkscape:export-filename="/home/tog/documents/www/test_wordpress/wp-content/themes/Killer/library/images/config-icon.png"
       inkscape:export-xdpi="49.867119"
       inkscape:export-ydpi="49.867119" />
    <rect
       style="color:#000000;fill:#838383;fill-opacity:1;fill-rule:nonzero;stroke:none;stroke-width:1;marker:none;visibility:visible;display:inline;overflow:visible;enable-background:accumulate"
       id="rect3947-9"
       width="8.586297"
       height="25.75889"
       x="364.21191"
       y="914.22382"
       ry="3.0304577"
       inkscape:export-filename="/home/tog/documents/www/test_wordpress/wp-content/themes/Killer/library/images/config-icon.png"
       inkscape:export-xdpi="49.867119"
       inkscape:export-ydpi="49.867119" />
    <rect
       style="color:#000000;fill:#838383;fill-opacity:1;fill-rule:nonzero;stroke:none;stroke-width:1;marker:none;visibility:visible;display:inline;overflow:visible;enable-background:accumulate"
       id="rect3947-1-1"
       width="14.647213"
       height="43.941635"
       x="883.98267"
       y="-390.47589"
       ry="5.1696043"
       transform="matrix(0,1,-1,0,0,0)"
       inkscape:export-filename="/home/tog/documents/www/test_wordpress/wp-content/themes/Killer/library/images/config-icon.png"
       inkscape:export-xdpi="49.867119"
       inkscape:export-ydpi="49.867119" />
    <path
       style="fill:#343434;fill-opacity:1;stroke:none;display:inline"
       d="m 377.70282,898.6255 c -5.16431,0.009 -11.09354,0.0158 -16.40818,0.0182 -0.15291,7e-5 -1.06179,1.20215 -1.21245,2.90251 -0.23804,2.68658 3.98922,10.40088 -0.70711,10.75771 -4.17287,-0.93782 -0.26194,-7.79463 -0.49899,-10.48854 -0.14771,-1.67836 -0.87432,-3.04049 -1.01904,-3.04099 -0.62561,-0.002 -0.68702,-0.005 -1.25005,-0.01 -0.0858,-6.6e-4 -0.82818,2.04323 -0.92469,2.74182 -0.15222,1.10175 2.48852,4.48183 -0.36971,4.93112 -2.89392,-0.46892 0.0409,-3.83732 -0.0619,-4.91986 -0.072,-0.75817 -1.03793,-2.85382 -1.12127,-2.85483 -2.10755,-0.0256 -2.87541,0.0181 -3.23653,-0.0507 -1.875,-0.35713 -4.01786,-2.05358 -4.375,-4.91072 l -4e-5,2.8e-4 c 0,0 20.625,2.32143 25.53571,1.51786 4.91072,-0.80357 9.19643,-1.33929 12.58929,-0.53572 3.39285,0.80357 5.71428,0.0893 5.71428,0.0893 0,0 -0.97224,3.38296 -4.26049,3.79782 -0.81722,0.10311 -3.0372,0.01 -5.31616,0.0597 -1.02564,0.0226 -2.05178,-0.007 -3.07767,-0.005 z"
       id="path3969-5"
       inkscape:connector-curvature="0"
       sodipodi:nodetypes="ssscsssscsssccsscsss"
       inkscape:export-filename="/home/tog/documents/www/test_wordpress/wp-content/themes/Killer/library/images/config-icon.png"
       inkscape:export-xdpi="49.867119"
       inkscape:export-ydpi="49.867119" />
    <path
       style="font-size:medium;font-style:normal;font-variant:normal;font-weight:normal;font-stretch:normal;text-indent:0;text-align:start;text-decoration:none;line-height:normal;letter-spacing:normal;word-spacing:normal;text-transform:none;direction:ltr;block-progression:tb;writing-mode:lr-tb;text-anchor:start;baseline-shift:baseline;color:#000000;fill:#e24b4b;fill-opacity:1;stroke:none;stroke-width:4;marker:none;visibility:visible;display:inline;overflow:visible;enable-background:accumulate;font-family:Sans;-inkscape-font-specification:Sans"
       d="m 284.40206,968.8172 c -7.56252,0.76342 -13.47536,7.152 -13.47536,14.92237 l 0,12.48053 c 0,0.24281 -0.0113,0.48347 0,0.7235 0.0124,0.0993 0.0765,0.17307 0.0904,0.27118 0.36086,5.52322 3.6822,10.11402 8.41079,12.39012 0.6573,0.3164 1.37305,0.6854 2.08009,0.9043 0.46904,0.1453 0.86873,0.2625 1.35658,0.3618 0.2431,0.061 0.48293,0.2254 0.72351,0.2712 1.04509,0.1991 3.21585,0.017 9.31517,0.09 0.24119,0 3.04742,6.1261 3.25579,8.3203 0.29751,3.1329 -8.19423,12.8418 0.18088,14.1988 8.27182,-1.3002 0.64473,-11.1008 1.08526,-14.2893 0.27931,-2.0217 2.46485,-7.87 2.71316,-7.8681 1.62943,0.014 1.80701,-0.01 3.61755,0 0.41882,10e-4 2.46655,3.9153 2.89402,8.7725 0.68603,7.7963 -10.6294,27.6733 1.44702,30.3874 13.59135,-1.0327 1.39119,-23.3358 2.08009,-31.1109 0.43601,-4.9209 3.08458,-8.4105 3.5271,-8.4107 15.38076,-0.01 32.53458,-0.064 47.48027,-0.09 l 21.79571,0 c 1.03794,-0.02 1.85059,-0.1062 2.44184,-0.1809 0.4067,-0.051 0.79319,-0.1 1.1757,-0.1809 0.34387,-0.073 0.67006,-0.1762 0.99482,-0.2712 0.34697,-0.1073 0.74976,-0.2303 1.08527,-0.3617 0.12618,-0.049 0.23847,-0.1288 0.36175,-0.1809 0.92664,-0.3918 1.77697,-0.8232 2.53228,-1.3566 0.72395,-0.4882 1.36402,-1.0235 1.98965,-1.6279 0.0643,-0.064 0.11837,-0.1157 0.18088,-0.1808 0.52434,-0.5244 1.00518,-1.1207 1.44702,-1.7184 0.13804,-0.1895 0.23615,-0.3556 0.36175,-0.5426 0.29105,-0.4315 0.56839,-0.8944 0.81395,-1.3566 0.24368,-0.4361 0.4583,-0.8024 0.63307,-1.1757 0.0642,-0.1522 0.12155,-0.2974 0.18088,-0.4522 0.41248,-0.9366 0.63307,-1.5374 0.63307,-1.5374 0,0 -0.16178,0.085 -0.18088,0.09 0.33504,-1.24739 0.54263,-2.53289 0.54263,-3.88889 l 0,-1.71834 c 1.38022,0.0897 2.23631,0.18898 2.44184,0.27117 0.10072,0.0405 0.16699,0.0318 0.18088,0 -0.0315,0.0524 -0.10505,0.29048 0.0903,1.35658 0.39116,2.13221 0.54264,6.55148 0.54264,13.02318 0,5.4511 -0.3641,9.0449 -0.90439,10.7621 -0.54029,1.7172 -0.44421,1.5393 -1.80877,2.0801 -2.72911,1.0816 -12.78657,1.0853 -30.47781,1.0853 -10.04934,0 -17.11431,-0.2582 -22.79053,0.2712 -2.83809,0.2648 -5.41023,0.6794 -7.86816,1.8087 -2.45793,1.1293 -4.71473,3.11 -6.05939,5.5168 -2.68928,4.8134 -2.62031,10.01 -2.53228,17.2738 0.0292,2.4212 0.10043,5.531 0.18088,8.5012 -4.04624,0.7822 -7.05421,4.3102 -7.05421,8.5917 l 0,57.0666 c 0,4.8588 3.91384,8.7727 8.77254,8.7727 l 7.32553,0 c 4.85871,0 8.77255,-3.9139 8.77255,-8.7727 l 0,-57.0666 c 0,-3.9623 -2.64535,-7.2256 -6.24027,-8.3204 -0.0862,-3.1645 -0.15165,-6.442 -0.18087,-8.863 -0.0834,-6.8679 0.62273,-10.6578 1.08526,-11.4857 0.23123,-0.4139 0.11952,-0.446 0.72351,-0.7235 0.60395,-0.2775 2.01364,-0.6136 4.16017,-0.8139 4.2931,-0.4008 11.47341,-0.1809 21.70527,-0.1809 17.38979,0 26.73857,1.2673 34.72842,-1.8992 3.99493,-1.5833 7.30492,-5.2255 8.59167,-9.3152 1.28675,-4.0897 1.44702,-8.5036 1.44702,-14.2893 0,-6.501 0.0174,-11.06884 -0.72351,-15.10321 -0.74009,-4.03437 -3.40107,-8.37424 -7.32553,-9.94825 -1.96221,-0.787 -3.85309,-1.14789 -5.87851,-1.26614 -0.31828,-0.0174 -0.66742,0.009 -0.99482,0 -0.47063,-7.85898 -6.93944,-14.01798 -14.92237,-14.01798 l -97.22149,0 c -0.51804,0 -1.03329,-0.0509 -1.53746,0 z"
       id="path3967-8-4"
       inkscape:connector-curvature="0" />
    <g
       id="g4322"
       transform="translate(-3.1559701,11.842997)">
      <path
         inkscape:connector-curvature="0"
         id="path4168-0-2"
         d="m 101.78125,898.83093 c -9.091374,14.89975 -6.0625,42.15625 -6.0625,42.15625 l 0.21875,0 c 0.696996,-2.15324 2.584665,-3.76564 4.90625,-4 0.1953,-0.0197 0.42433,0 0.625,0 l 37.65625,0 c 2.11653,0 3.95867,1.13102 4.96875,2.8125 -0.45575,-5.42414 -1.76745,-27.93147 6.1875,-40.96875 l -48.5,0 z"
         style="opacity:0.73039216;fill:#a3a3a3;fill-opacity:1;stroke:none" />
      <g
         id="g4318">
        <path
           style="opacity:0.97058835;fill:#a3a3a3;fill-opacity:1;stroke:none;display:inline"
           d="m 130.62737,953.23368 c -5.81879,0.0101 -12.49945,0.0178 -18.48762,0.0205 -0.17229,8e-5 -1.19635,1.3545 -1.36611,3.27035 -0.26821,3.02706 4.49478,11.71901 -0.79672,12.12106 -4.70171,-1.05668 -0.29513,-8.78246 -0.56222,-11.81777 -0.16644,-1.89107 -0.98513,-3.42582 -1.14819,-3.42639 -0.70489,-0.002 -0.77409,-0.006 -1.40847,-0.0113 -0.0967,-7.4e-4 -0.93314,2.30217 -1.04188,3.08929 -0.17151,1.24138 2.80389,5.04982 -0.41657,5.55606 -3.26067,-0.52835 0.0461,-4.32364 -0.0698,-5.54337 -0.0812,-0.85425 -1.16947,-3.21549 -1.26337,-3.21663 -2.37464,-0.0288 -3.23982,0.0204 -3.6467,-0.0571 -2.112621,-0.40238 -4.527048,-2.31383 -4.929449,-5.53306 l -4.6e-5,3.2e-4 c 0,0 23.238845,2.61562 28.771895,1.71022 5.53306,-0.90541 10.36192,-1.50902 14.18476,-0.60362 3.82283,0.90542 6.43846,0.10062 6.43846,0.10062 0,0 -1.09546,3.81169 -4.80043,4.27913 -0.92079,0.11617 -3.42211,0.0113 -5.98988,0.0672 -1.15563,0.0254 -2.31182,-0.008 -3.46772,-0.006 z"
           id="path3969-5-0"
           inkscape:connector-curvature="0"
           sodipodi:nodetypes="ssscsssscsssccsscsss" />
        <path
           style="font-size:medium;font-style:normal;font-variant:normal;font-weight:normal;font-stretch:normal;text-indent:0;text-align:start;text-decoration:none;line-height:normal;letter-spacing:normal;word-spacing:normal;text-transform:none;direction:ltr;block-progression:tb;writing-mode:lr-tb;text-anchor:start;baseline-shift:baseline;opacity:0.57352941;color:#000000;fill:#969696;fill-opacity:1;stroke:none;stroke-width:4;marker:none;visibility:visible;display:inline;overflow:visible;filter:url(#filter4154-7);enable-background:accumulate;font-family:Sans;-inkscape-font-specification:Sans"
           d="m 76.788705,913.76267 c -7.56252,0.76342 -13.47536,7.152 -13.47536,14.92237 l 0,12.48053 c 0,0.24281 -0.0113,0.48347 0,0.7235 0.0124,0.0993 0.0765,0.17307 0.0904,0.27118 0.36086,5.52322 3.6822,10.11402 8.41079,12.39012 0.6573,0.3164 1.37305,0.6854 2.08009,0.9043 0.46904,0.1453 0.86873,0.2625 1.35658,0.3618 0.2431,0.061 0.48293,0.2254 0.72351,0.2712 1.04509,0.1991 3.21585,0.017 9.31517,0.09 0.24119,0 3.04742,6.1261 3.25579,8.3203 0.29751,3.1329 -8.19423,12.8418 0.18088,14.1988 8.27182,-1.3002 0.64473,-11.1008 1.08526,-14.2893 0.27931,-2.0217 2.46485,-7.87 2.71316,-7.8681 1.62943,0.014 1.80701,-0.01 3.61755,0 0.41882,0 2.46655,3.9153 2.89402,8.7725 0.68603,7.7963 -10.6294,27.6733 1.447025,30.3874 13.59135,-1.0327 1.39119,-23.3358 2.08009,-31.1109 0.43601,-4.9209 3.08458,-8.4105 3.5271,-8.4107 15.38076,-0.01 32.53458,-0.064 47.48027,-0.09 l 21.79571,0 c 1.03794,-0.02 1.85059,-0.1062 2.44184,-0.1809 0.4067,-0.051 0.79319,-0.1 1.1757,-0.1809 0.34387,-0.073 0.67006,-0.1762 0.99482,-0.2712 0.34697,-0.1073 0.74976,-0.2303 1.08527,-0.3617 0.12618,-0.049 0.23847,-0.1288 0.36175,-0.1809 0.92664,-0.3918 1.77697,-0.8232 2.53228,-1.3566 0.72395,-0.4882 1.36402,-1.0235 1.98965,-1.6279 0.0643,-0.064 0.11837,-0.1157 0.18088,-0.1808 0.52434,-0.5244 1.00518,-1.1207 1.44702,-1.7184 0.13804,-0.1895 0.23615,-0.3556 0.36175,-0.5426 0.29105,-0.4315 0.56839,-0.8944 0.81395,-1.3566 0.24368,-0.4361 0.4583,-0.8024 0.63307,-1.1757 0.0642,-0.1522 0.12155,-0.2974 0.18088,-0.4522 0.41248,-0.9366 0.63307,-1.5374 0.63307,-1.5374 0,0 -0.16178,0.085 -0.18088,0.09 0.33504,-1.24739 0.54263,-2.53289 0.54263,-3.88889 l 0,-1.71834 c 1.38022,0.0897 2.23631,0.18898 2.44184,0.27117 0.10072,0.0405 0.16699,0.0318 0.18088,0 -0.0315,0.0524 -0.10505,0.29048 0.0903,1.35658 0.39116,2.13221 0.54264,6.55148 0.54264,13.02318 0,5.4511 -0.3641,9.0449 -0.90439,10.7621 -0.54029,1.7172 -0.44421,1.5393 -1.80877,2.0801 -2.72911,1.0816 -12.78657,1.0853 -30.47781,1.0853 -10.04934,0 -17.11431,-0.2582 -22.79053,0.2712 -2.83809,0.2648 -5.41023,0.6794 -7.86816,1.8087 -2.45793,1.1293 -4.71473,3.11 -6.05939,5.5168 -2.68928,4.8134 -2.62031,10.01 -2.53228,17.2738 0.0292,2.4212 0.10043,5.53097 0.18088,8.50113 -4.04624,0.7822 -7.05421,4.3102 -7.05421,8.5917 l 0,57.0667 c 0,4.8588 3.91384,8.7727 8.77254,8.7727 l 7.32553,0 c 4.85871,0 8.77255,-3.9139 8.77255,-8.7727 l 0,-57.0667 c 0,-3.9623 -2.64535,-7.2256 -6.24027,-8.3204 -0.0862,-3.16446 -0.15165,-6.44193 -0.18087,-8.86293 -0.0834,-6.8679 0.62273,-10.6578 1.08526,-11.4857 0.23123,-0.4139 0.11952,-0.446 0.72351,-0.7235 0.60395,-0.2775 2.01364,-0.6136 4.16017,-0.8139 4.2931,-0.4008 11.47341,-0.1809 21.70527,-0.1809 17.38979,0 26.73857,1.2673 34.72842,-1.8992 3.99493,-1.5833 7.30492,-5.2255 8.59167,-9.3152 1.28675,-4.0897 1.44702,-8.5036 1.44702,-14.2893 0,-6.501 0.0174,-11.06884 -0.72351,-15.10321 -0.74009,-4.03437 -3.40107,-8.37424 -7.32553,-9.94825 -1.96221,-0.787 -3.85309,-1.14789 -5.87851,-1.26614 -0.31828,-0.0174 -0.66742,0.009 -0.99482,0 -0.47063,-7.85898 -6.93944,-14.01798 -14.92237,-14.01798 l -97.221495,0 c -0.51804,0 -1.03329,-0.0509 -1.53746,0 z"
           id="path3967-8-4-1-1"
           inkscape:connector-curvature="0"
           transform="matrix(0.38737229,0,0,0.38737229,71.112391,583.0293)" />
      </g>
    </g>
    <path
       style="font-size:medium;font-style:normal;font-variant:normal;font-weight:normal;font-stretch:normal;text-indent:0;text-align:start;text-decoration:none;line-height:normal;letter-spacing:normal;word-spacing:normal;text-transform:none;direction:ltr;block-progression:tb;writing-mode:lr-tb;text-anchor:start;baseline-shift:baseline;color:#000000;fill:#767676;fill-opacity:1;stroke:none;stroke-width:18.28687096000000167;marker:none;visibility:visible;display:inline;overflow:visible;enable-background:accumulate;font-family:Sans;-inkscape-font-specification:Sans"
       d="M -136.5625 -7.09375 C -155.86996 -7.09375 -168.62696 3.69629 -174.96875 13.8125 C -181.31054 23.92871 -182.65625 34.03125 -182.65625 34.03125 L -182.75 34.65625 L -182.75 35.28125 L -182.75 53.84375 L -189.6875 53.84375 L -189.6875 120.71875 L -85.3125 120.71875 L -85.3125 53.84375 L -92.25 53.84375 L -92.25 37.0625 L -92.25 36.6875 L -92.28125 36.34375 C -92.28125 36.34375 -93.026076 25.85538 -98.8125 15.1875 C -104.59892 4.51962 -117.088 -7.09375 -136.5625 -7.09375 z M -136.5625 11.1875 C -123.68749 11.1875 -118.61848 17.06236 -114.90625 23.90625 C -111.2734 30.60379 -110.59144 37.33347 -110.5625 37.625 L -110.5625 53.84375 L -164.4375 53.84375 L -164.4375 36.1875 C -164.3466 35.62905 -163.36211 29.7418 -159.46875 23.53125 C -155.38825 17.02218 -149.60455 11.1875 -136.5625 11.1875 z "
       transform="translate(0,872.36218)"
       id="path4330"
       inkscape:export-filename="/home/tog/documents/www/test_wordpress/wp-content/themes/roller/library/images/lock.png"
       inkscape:export-xdpi="8.6199999"
       inkscape:export-ydpi="8.6199999" />
    <path
       style="opacity:0.76960784000000004;color:#000000;fill:#b7b7b7;fill-opacity:1;fill-rule:nonzero;stroke:none;stroke-width:0.92600590000000005;stroke-linecap:square;stroke-linejoin:round;stroke-miterlimit:4;stroke-opacity:1;stroke-dasharray:none;stroke-dashoffset:0;marker:none;visibility:visible;display:inline;overflow:visible;enable-background:accumulate"
       d="M -426.375 -170.46875 L -495.25 -105.875 L -426.375 -41.28125 L -426.375 -60.09375 L -389.1875 -60.09375 L -381.78125 -60.09375 L -344.59375 -60.09375 L -344.59375 -41.28125 L -275.71875 -105.875 L -344.59375 -170.46875 L -344.59375 -151.625 L -381.78125 -151.625 L -389.1875 -151.625 L -426.375 -151.625 L -426.375 -170.46875 z "
       transform="translate(0,872.36218)"
       id="rect3866"
       inkscape:export-filename="/home/tog/documents/www/test_wordpress/wp-content/themes/roller/library/images/arrows.png"
       inkscape:export-xdpi="41"
       inkscape:export-ydpi="41" />
  </g>
</svg>
